<svg width="261" height="138" viewBox="0 0 261 138" fill="none" xmlns="http://www.w3.org/2000/svg">
<rect x="4.02661" y="69.7522" width="218.156" height="53.6574" fill="#14AE5C"/>
<path d="M4.30355 64.4165V24.1198H19.4148C22.5105 24.1198 25.1078 24.6576 27.2066 25.7333C29.3185 26.8089 30.9122 28.3174 31.9878 30.2588C33.0766 32.187 33.621 34.4367 33.621 37.0077C33.621 39.5918 33.07 41.8349 31.9682 43.7369C30.8794 45.6258 29.2725 47.0884 27.1475 48.1247C25.0225 49.1478 22.4121 49.6594 19.3164 49.6594H8.5536V43.5992H18.3326C20.1428 43.5992 21.6251 43.3499 22.7794 42.8515C23.9338 42.3399 24.7864 41.5988 25.3373 40.6281C25.9014 39.6443 26.1834 38.4375 26.1834 37.0077C26.1834 35.5779 25.9014 34.358 25.3373 33.3479C24.7733 32.3248 23.9141 31.5508 22.7597 31.0261C21.6054 30.4883 20.1166 30.2194 18.2933 30.2194H11.6034V64.4165H4.30355ZM25.1209 46.1571L35.0967 64.4165H26.9508L17.1521 46.1571H25.1209ZM37.0159 64.4165V24.1198H63.2245V30.2391H44.3157V41.179H61.8668V47.2983H44.3157V58.2972H63.3819V64.4165H37.0159ZM101.84 37.716H94.4808C94.2709 36.5092 93.8839 35.4401 93.3199 34.5088C92.7558 33.5644 92.054 32.7642 91.2145 32.1083C90.375 31.4525 89.4174 30.9606 88.3418 30.6326C87.2793 30.2916 86.1315 30.121 84.8985 30.121C82.7079 30.121 80.7665 30.672 79.0744 31.7738C77.3822 32.8626 76.0574 34.4629 75.0998 36.5748C74.1422 38.6736 73.6634 41.238 73.6634 44.2682C73.6634 47.3508 74.1422 49.948 75.0998 52.0599C76.0705 54.1587 77.3953 55.7459 79.0744 56.8215C80.7665 57.884 82.7013 58.4153 84.8788 58.4153C86.0856 58.4153 87.2137 58.2579 88.2631 57.9431C89.3256 57.6151 90.2766 57.1363 91.1161 56.5067C91.9688 55.8771 92.6837 55.1031 93.2608 54.1849C93.8511 53.2667 94.2578 52.2173 94.4808 51.0367L101.84 51.0761C101.564 52.9912 100.967 54.7883 100.049 56.4674C99.144 58.1464 97.9569 59.6286 96.4877 60.9142C95.0186 62.1865 93.3002 63.1835 91.3326 63.9049C89.365 64.6133 87.1809 64.9674 84.7804 64.9674C81.2387 64.9674 78.0774 64.1476 75.2965 62.5079C72.5157 60.8682 70.325 58.5006 68.7247 55.4048C67.1244 52.3091 66.3242 48.5969 66.3242 44.2682C66.3242 39.9263 67.131 36.2141 68.7444 33.1315C70.3578 30.0358 72.555 27.6681 75.3359 26.0284C78.1168 24.3887 81.265 23.5689 84.7804 23.5689C87.0235 23.5689 89.1092 23.8837 91.0374 24.5133C92.9657 25.143 94.6841 26.0678 96.1926 27.2877C97.7011 28.4945 98.9407 29.9767 99.9114 31.7345C100.895 33.4791 101.538 35.4729 101.84 37.716ZM112.5 24.1198V64.4165H105.2V24.1198H112.5ZM151.573 37.716H144.214C144.004 36.5092 143.617 35.4401 143.053 34.5088C142.489 33.5644 141.787 32.7642 140.947 32.1083C140.108 31.4525 139.15 30.9606 138.075 30.6326C137.012 30.2916 135.864 30.121 134.631 30.121C132.441 30.121 130.499 30.672 128.807 31.7738C127.115 32.8626 125.79 34.4629 124.833 36.5748C123.875 38.6736 123.396 41.238 123.396 44.2682C123.396 47.3508 123.875 49.948 124.833 52.0599C125.803 54.1587 127.128 55.7459 128.807 56.8215C130.499 57.884 132.434 58.4153 134.612 58.4153C135.819 58.4153 136.947 58.2579 137.996 57.9431C139.059 57.6151 140.01 57.1363 140.849 56.5067C141.702 55.8771 142.417 55.1031 142.994 54.1849C143.584 53.2667 143.991 52.2173 144.214 51.0367L151.573 51.0761C151.297 52.9912 150.7 54.7883 149.782 56.4674C148.877 58.1464 147.69 59.6286 146.221 60.9142C144.752 62.1865 143.033 63.1835 141.066 63.9049C139.098 64.6133 136.914 64.9674 134.513 64.9674C130.972 64.9674 127.81 64.1476 125.029 62.5079C122.249 60.8682 120.058 58.5006 118.458 55.4048C116.857 52.3091 116.057 48.5969 116.057 44.2682C116.057 39.9263 116.864 36.2141 118.477 33.1315C120.091 30.0358 122.288 27.6681 125.069 26.0284C127.85 24.3887 130.998 23.5689 134.513 23.5689C136.756 23.5689 138.842 23.8837 140.77 24.5133C142.699 25.143 144.417 26.0678 145.926 27.2877C147.434 28.4945 148.674 29.9767 149.644 31.7345C150.628 33.4791 151.271 35.4729 151.573 37.716ZM154.933 64.4165V24.1198H162.233V58.2972H179.981V64.4165H154.933ZM189.682 64.4165H181.89L196.077 24.1198H205.088L219.294 64.4165H211.503L200.74 32.3838H200.425L189.682 64.4165ZM189.938 48.6166H211.188V54.4801H189.938V48.6166Z" fill="#1E1E1E"/>
<path d="M11.171 116.169L17.8609 75.872H32.2245C35.3464 75.872 37.8453 76.4098 39.7211 77.4855C41.61 78.548 42.9086 80.0302 43.6169 81.9323C44.3384 83.8212 44.4958 86.0118 44.0892 88.5041C43.6694 90.9702 42.784 93.1345 41.4329 94.9972C40.0949 96.8599 38.3044 98.3159 36.0613 99.3653C33.8314 100.402 31.1554 100.92 28.0335 100.92H17.1526L18.0577 95.6859H28.3876C30.3684 95.6859 32.0212 95.4038 33.346 94.8398C34.6709 94.2757 35.7071 93.4559 36.4548 92.3803C37.2156 91.3047 37.7141 90.0126 37.9502 88.5041C38.1995 86.9693 38.1273 85.651 37.7338 84.5492C37.3403 83.4342 36.5729 82.5816 35.4317 81.9913C34.2905 81.3879 32.7229 81.0862 30.7291 81.0862H23.0948L17.251 116.169H11.171ZM34.074 97.988L41.0197 116.169H34.0937L27.3251 97.988H34.074ZM55.8169 116.779C52.8524 116.779 50.3994 116.142 48.4581 114.87C46.5298 113.585 45.1787 111.781 44.4048 109.459C43.6309 107.124 43.5062 104.389 44.0309 101.254C44.5425 98.1585 45.5722 95.4301 47.1201 93.0689C48.6679 90.7078 50.5962 88.8648 52.9049 87.54C55.2266 86.2151 57.7911 85.5527 60.5982 85.5527C62.3035 85.5527 63.9104 85.8347 65.4189 86.3987C66.9405 86.9628 68.2326 87.8482 69.2951 89.055C70.3576 90.2618 71.0921 91.8293 71.4988 93.7576C71.9185 95.6727 71.9054 98.0011 71.4594 100.743L71.1249 102.828H47.0807L47.7694 98.4208H66.0288C66.3043 96.873 66.2321 95.5022 65.8124 94.3085C65.3926 93.1017 64.6712 92.1507 63.648 91.4555C62.638 90.7603 61.3656 90.4127 59.8309 90.4127C58.2568 90.4127 56.7876 90.8259 55.4234 91.6523C54.0592 92.4787 52.918 93.5346 51.9998 94.8201C51.0947 96.0925 50.5241 97.4042 50.2879 98.7553L49.5993 102.789C49.2582 104.993 49.3172 106.764 49.7764 108.101C50.2486 109.439 51.075 110.41 52.2555 111.014C53.4361 111.617 54.9118 111.919 56.6827 111.919C57.8239 111.919 58.8798 111.761 59.8505 111.446C60.8343 111.118 61.7066 110.64 62.4675 110.01C63.2283 109.367 63.8645 108.567 64.376 107.61L69.7673 108.613C69.0458 110.253 68.0096 111.689 66.6585 112.922C65.3074 114.142 63.7136 115.093 61.8772 115.775C60.0538 116.444 58.0338 116.779 55.8169 116.779ZM84.8252 116.779C81.8869 116.779 79.4799 116.116 77.6041 114.791C75.7283 113.453 74.4231 111.61 73.6885 109.262C72.954 106.914 72.8359 104.225 73.3344 101.195C73.8328 98.1257 74.8494 95.417 76.3842 93.0689C77.932 90.7078 79.8668 88.8648 82.1886 87.54C84.5235 86.2151 87.1142 85.5527 89.9607 85.5527C92.2562 85.5527 94.2304 85.979 95.8832 86.8316C97.536 87.6711 98.7887 88.8517 99.6413 90.3733C100.494 91.8949 100.861 93.6723 100.743 95.7055H95.0174C94.9256 94.2889 94.4009 93.0689 93.4434 92.0458C92.4858 91.0226 91.0757 90.511 89.213 90.511C87.5733 90.511 86.0648 90.9439 84.6875 91.8097C83.3102 92.6623 82.1493 93.8822 81.2048 95.4694C80.2604 97.0435 79.6176 98.9062 79.2766 101.057C78.9093 103.261 78.9289 105.163 79.3356 106.764C79.7422 108.364 80.4899 109.603 81.5787 110.482C82.6674 111.361 84.0382 111.801 85.691 111.801C86.8191 111.801 87.8685 111.597 88.8391 111.191C89.823 110.771 90.6887 110.174 91.4364 109.4C92.1972 108.626 92.7875 107.695 93.2072 106.606H98.9527C98.3886 108.561 97.4442 110.305 96.1193 111.84C94.8076 113.375 93.1941 114.581 91.279 115.46C89.3638 116.339 87.2126 116.779 84.8252 116.779ZM100.287 116.169L105.324 85.9462H111.207L106.17 116.169H100.287ZM109.495 81.2239C108.472 81.2239 107.606 80.8829 106.898 80.2008C106.202 79.5055 105.881 78.6791 105.934 77.7216C105.986 76.7509 106.393 75.9245 107.153 75.2424C107.914 74.5472 108.8 74.1995 109.81 74.1995C110.833 74.1995 111.692 74.5472 112.387 75.2424C113.083 75.9245 113.41 76.7509 113.371 77.7216C113.319 78.6791 112.912 79.5055 112.151 80.2008C111.404 80.8829 110.518 81.2239 109.495 81.2239ZM130.18 85.9462L129.413 90.6685H112.334L113.101 85.9462H130.18ZM112.747 116.169L118.375 82.4438C118.663 80.5549 119.326 78.9874 120.362 77.7413C121.398 76.482 122.651 75.5441 124.12 74.9276C125.589 74.2979 127.124 73.9831 128.724 73.9831C129.905 73.9831 130.895 74.0815 131.695 74.2783C132.509 74.4619 133.099 74.6324 133.466 74.7898L131.321 79.5515C131.059 79.4727 130.725 79.3809 130.318 79.276C129.911 79.1579 129.4 79.0989 128.783 79.0989C127.353 79.0989 126.271 79.4531 125.537 80.1614C124.815 80.8698 124.33 81.8929 124.081 83.2309L118.63 116.169H112.747ZM139.645 116.779C136.681 116.779 134.228 116.142 132.286 114.87C130.358 113.585 129.007 111.781 128.233 109.459C127.459 107.124 127.335 104.389 127.859 101.254C128.371 98.1585 129.401 95.4301 130.948 93.0689C132.496 90.7078 134.425 88.8648 136.733 87.54C139.055 86.2151 141.619 85.5527 144.427 85.5527C146.132 85.5527 147.739 85.8347 149.247 86.3987C150.769 86.9628 152.061 87.8482 153.123 89.055C154.186 90.2618 154.92 91.8293 155.327 93.7576C155.747 95.6727 155.734 98.0011 155.288 100.743L154.953 102.828H130.909L131.598 98.4208H149.857C150.133 96.873 150.06 95.5022 149.641 94.3085C149.221 93.1017 148.499 92.1507 147.476 91.4555C146.466 90.7603 145.194 90.4127 143.659 90.4127C142.085 90.4127 140.616 90.8259 139.252 91.6523C137.888 92.4787 136.746 93.5346 135.828 94.8201C134.923 96.0925 134.352 97.4042 134.116 98.7553L133.428 102.789C133.087 104.993 133.146 106.764 133.605 108.101C134.077 109.439 134.903 110.41 136.084 111.014C137.264 111.617 138.74 111.919 140.511 111.919C141.652 111.919 142.708 111.761 143.679 111.446C144.663 111.118 145.535 110.64 146.296 110.01C147.057 109.367 147.693 108.567 148.204 107.61L153.596 108.613C152.874 110.253 151.838 111.689 150.487 112.922C149.136 114.142 147.542 115.093 145.705 115.775C143.882 116.444 141.862 116.779 139.645 116.779Z" fill="white"/>
<path d="M185.762 89.6643L190.578 81.7102L187.386 76.4075C186.953 75.6861 186.33 75.3253 185.519 75.3253C184.707 75.3253 184.085 75.6861 183.652 76.4075L178.349 85.2273L185.762 89.6643ZM206.703 104.382L201.887 96.3738L209.408 92.0451L212.871 97.8348C213.268 98.448 213.484 99.1334 213.52 99.891C213.556 100.648 213.394 101.352 213.033 102.001C212.673 102.723 212.141 103.3 211.437 103.733C210.734 104.166 209.967 104.382 209.137 104.382H206.703ZM200.48 119.533L191.823 110.875L200.48 102.218V106.546H210.761L207.622 112.823C207.226 113.545 206.685 114.122 205.999 114.555C205.314 114.987 204.556 115.204 203.727 115.204H200.48V119.533ZM179.54 115.204C178.818 115.204 178.16 115.015 177.565 114.636C176.969 114.257 176.528 113.761 176.239 113.148C175.95 112.571 175.815 111.966 175.833 111.335C175.851 110.704 176.023 110.118 176.347 109.577L178.187 106.546H187.494V115.204H179.54ZM174.183 109.035L170.666 102.001C170.341 101.352 170.188 100.658 170.206 99.918C170.224 99.1785 170.431 98.4841 170.828 97.8348L171.694 96.3738L168.014 94.1554L179.864 91.1794L182.84 103.083L179.107 100.811L174.183 109.035ZM203.402 90.53L191.552 87.554L195.285 85.3355L188.522 74.0808H196.151C196.909 74.0808 197.621 74.2702 198.289 74.649C198.956 75.0277 199.488 75.5418 199.885 76.1911L202.698 80.8986L206.378 78.626L203.402 90.53Z" fill="white"/>
</svg>
